<svg width="1575" height="1469" viewBox="0 0 1575 1469" fill="none" xmlns="http://www.w3.org/2000/svg">
<path d="M695.625 991.575L1158.28 560.056L1066.41 474.365L695.625 820.192L508.594 645.748L416.719 731.44L695.625 991.575ZM328.125 1285.37C292.031 1285.37 261.133 1273.39 235.43 1249.42C209.727 1225.44 196.875 1196.62 196.875 1162.96V306.042C196.875 272.377 209.727 243.558 235.43 219.585C261.133 195.612 292.031 183.625 328.125 183.625H1246.88C1282.97 183.625 1313.87 195.612 1339.57 219.585C1365.27 243.558 1378.12 272.377 1378.12 306.042V1162.96C1378.12 1196.62 1365.27 1225.44 1339.57 1249.42C1313.87 1273.39 1282.97 1285.37 1246.88 1285.37H328.125Z" fill="#34C759"/>
</svg>
